<svg xmlns="http://www.w3.org/2000/svg" xmlns:xlink="http://www.w3.org/1999/xlink" version="1.1" x="0px" y="0px" viewBox="0 0 100 125" enable-background="new 0 0 100 100" xml:space="preserve"><g><path d="M73,64c0-7.168-5.832-13-13-13H40c-7.168,0-13,5.832-13,13v14h46V64z M71,76H29V64c0-6.065,4.935-11,11-11h20   c6.065,0,11,4.935,11,11V76z"/><path d="M50,47c6.893,0,12.5-5.607,12.5-12.5S56.893,22,50,22s-12.5,5.607-12.5,12.5S43.107,47,50,47z M50,24   c5.79,0,10.5,4.71,10.5,10.5S55.79,45,50,45s-10.5-4.71-10.5-10.5S44.21,24,50,24z"/></g></svg>