<svg xmlns="http://www.w3.org/2000/svg" xmlns:xlink="http://www.w3.org/1999/xlink" version="1.1" x="0px" y="0px" viewBox="0 0 100 125" enable-background="new 0 0 100 100" xml:space="preserve"><g><path fill="#000000" d="M84.281,69.305l0.001-50.77c-0.001-0.008-0.005-0.012-0.005-0.02c-0.004-0.256-0.053-0.508-0.152-0.748   c-0.098-0.238-0.242-0.455-0.422-0.637c-0.004-0.004-0.005-0.008-0.008-0.012c-0.186-0.184-0.406-0.329-0.65-0.432   c-0.245-0.1-0.504-0.153-0.764-0.154L31.51,16.535c-1.105,0-2,0.895-2,2c0,0.553,0.224,1.052,0.585,1.413   c0.362,0.362,0.862,0.587,1.414,0.586h45.943L17.105,80.881c-0.781,0.781-0.781,2.049,0,2.83c0.782,0.781,2.047,0.779,2.829-0.002   l60.348-60.348l0.001,45.946c-0.001,0.551,0.223,1.051,0.585,1.412c0.363,0.363,0.861,0.586,1.414,0.586   C83.385,71.305,84.279,70.41,84.281,69.305"/></g></svg>