<svg xmlns="http://www.w3.org/2000/svg" xmlns:xlink="http://www.w3.org/1999/xlink" version="1.1" x="0px" y="0px" viewBox="0 0 100 125" enable-background="new 0 0 100 100" xml:space="preserve"><g><path d="M30.004,36.91L27,70c0,7.168,5.832,13,13,13h20c7.168,0,13-5.832,12.996-13.091l-3-33C69.949,36.395,69.518,36,69,36h-9v-6   c0-5.149-4.579-9.5-10-9.5c-5.42,0-10,4.351-10,9.5v6h-9C30.483,36,30.051,36.395,30.004,36.91z M42,30c0-3.995,3.738-7.5,8-7.5   s8,3.505,8,7.5v6H42V30z M68.087,38L71,70c0,6.065-4.935,11-11,11H40c-6.065,0-11-4.935-11.004-10.909L31.913,38H68.087z"/></g></svg>