<svg class="MuiSvgIcon-root jss42 !w-[48px] !h-[46px] sm:!w-[70px] sm:!h-[67px]" focusable="false" viewBox="0 0 70 68" aria-hidden="true"><g fill="White" clip-path="url(#a)"><path d="M7.911 2.113 7.584.29H5.397L3.006 7.89c-.123.374-.22.829-.22 1.023 0 .346.192.58 1.299.593l-.04.14H0l.027-.14c.67 0 1.366-.083 1.599-.843L4.249.29h-2.2L.493 2.073H.369L.956.11h7.665l-.602 2.003h-.11.002ZM11.859 6.523c-.614 1.34-.984 2.28-.984 2.447 0 .083.028.18.137.18.26 0 .807-.513 1.38-1.19l.123.111c-.764.871-1.503 1.727-2.309 1.727-.15 0-.314-.179-.314-.358 0-.415.396-1.327 1.106-2.902.505-1.134.847-1.922.847-2.142 0-.166-.083-.331-.273-.331-.642 0-1.858 1.576-2.801 3.207-.492.843-.902 1.714-1.134 2.376h-.874l3.633-8.418c.083-.18.178-.442.178-.65 0-.317-.3-.4-.93-.414L9.714 0h2.09l-2.87 6.427h.041c.711-1.134 2.117-2.902 3.143-2.902.355 0 .656.152.656.525 0 .457-.287 1.091-.916 2.475l.002-.002ZM16.805 6.081c-.764.47-1.463.816-2.062 1.106-.192.498-.355 1.161-.355 1.52 0 .36.082.746.532.746.697 0 1.298-.609 2.008-1.604l.122.097c-.684 1.05-1.448 1.85-2.377 1.85-.764 0-1.203-.552-1.203-1.325 0-1.548 1.995-4.948 3.77-4.948.602 0 .916.332.916.788 0 .636-.491 1.245-1.352 1.768l.001.002Zm.327-2.377c-.614 0-1.515 1.245-2.322 3.248.902-.457 2.732-1.672 2.732-2.722 0-.331-.123-.526-.41-.526ZM11.143 13.505l-2.419 7.49h-.137l-2.117-6.55h-.028l-2.364 6.55h-.137L1.13 12.733c-.273-.815-.492-1.23-1.12-1.326v-.138h3.087v.138c-.724.028-1.024.152-1.024.47 0 .11.055.29.095.429l2.268 6.826h.027l1.858-5.113-.465-1.41c-.3-.898-.546-1.174-1.283-1.202v-.138h3.443v.138c-.93.056-1.134.276-1.134.692 0 .124.082.497.177.773l1.995 6.122h.028l1.707-5.17c.232-.704.437-1.423.437-1.823 0-.429-.327-.553-1.133-.594v-.138h2.377v.138c-.602.18-.807.485-1.326 2.101v-.002ZM17.182 20.997c-3.607 0-4.521-3.082-4.521-4.796 0-4.16 3.25-5.058 4.59-5.058 2.255 0 4.7 1.56 4.7 5.002 0 1.59-.861 4.852-4.769 4.852Zm.165-9.675c-1.695 0-3.47 1.506-3.47 4.934 0 2.432 1.23 4.561 3.305 4.561 2.42 0 3.553-2.598 3.553-4.685 0-3.51-2.145-4.808-3.388-4.808v-.002ZM26.54 16.976c-.464-.43-1.175-.498-1.802-.498v3.316c0 .76.382.857 1.16.857v.151H22.62v-.151c.724 0 1.011-.096 1.011-.857v-7.518c0-.745-.355-.856-.956-.856v-.152c1.188 0 2.295-.055 3.525-.055 1.64 0 3.333.65 3.333 2.57 0 1.425-.97 2.142-2.2 2.529.793.538 1.696 2.336 2.42 3.51.314.51.696.816 1.31.829v.151H28.96c-.574-1.01-1.558-3.04-2.419-3.828v.002Zm-.696-5.569c-.711 0-1.107.124-1.107.912v3.94c.48 0 .889-.014 1.299-.042 1.448-.11 2.294-.982 2.294-2.446 0-1.465-1.01-2.364-2.486-2.364ZM31.95 20.802v-.139c.712 0 1.08-.11 1.08-.87v-7.519c0-.76-.52-.87-1.052-.87v-.14h3.457v.14c-.888.012-1.298.275-1.298 1.009v7.061c0 1.147.41 1.19 1.735 1.19 1.94 0 2.582-.112 3.334-1.314.369-.593.669-1.09.915-1.533h.123l-.724 2.985h-7.57ZM44.234 20.886c-1.23 0-2.267-.083-3.47-.083h-.192v-.138c.614 0 .983-.124.983-.871v-7.519c0-.745-.519-.856-1.01-.87v-.14c1.392-.012 2.568-.082 3.976-.082 4.25 0 5.547 2.348 5.547 4.92 0 2.57-1.462 4.78-5.834 4.78v.003Zm-.04-9.52c-1.025 0-1.53.138-1.53 1.133v6.98c0 .884.491 1.202 1.79 1.217h.067c2.624 0 4.29-1.769 4.29-4.45 0-3.11-1.53-4.88-4.62-4.88h.002ZM54.103 20.956c-1.121 0-1.503-1.023-1.503-2.046 0-1.588 1.558-4.23 3.456-4.23 1.038 0 1.448.844 1.448 2.102 0 1.616-1.476 4.174-3.403 4.174h.002Zm1.995-6.137c-1.23 0-2.829 3.814-2.829 5.044 0 .442.15.954.67.954 1.175 0 2.896-3.303 2.896-4.99 0-.429-.083-1.008-.739-1.008h.002Z"></path><path d="M62.787 12.152c-.218 0-.37-.138-.437-.33-.082-.208-.247-.387-.437-.387-.532 0-.861 1.035-.984 1.479l-.574 1.95h1.353l-.11.317h-1.325l-.971 3.22c-.97 3.22-1.913 5.377-3.51 5.377-.465 0-.738-.276-.738-.581 0-.305.233-.43.425-.43.204 0 .354.153.464.443.04.11.15.276.382.276.465 0 .861-.829 1.256-2.142l1.83-6.164h-1.148l.11-.318h1.12c.123-.387.248-.801.398-1.217.464-1.326 1.16-2.502 2.527-2.502.479 0 .806.234.806.58 0 .248-.177.43-.437.43Z"></path><path d="M7.773 45.377V25.926c.006-2.136.327-2.75 2.607-2.752h3.766c8.822 0 12.892 4.347 12.892 10.947 0 6.245-4.765 11.217-10.912 11.256H7.773Zm54.514 0H40.804V25.474c0-1.724.343-2.299 2.691-2.299h1.266v-.44h-11.67v.44h1.207c2.389 0 2.739.562 2.739 2.299v41.172h-.53c-3.124 0-3.703-1.856-5.074-4.841-4.258-9.265-6.41-14.922-17.7-16.093l2.16.008c6.193.034 14.896-2.29 14.896-11.675 0-10.68-11.959-11.302-15.023-11.312H.061v.44h1.013c2.545 0 2.928.479 2.93 2.75v38.263c0 2.05-.532 2.426-2.717 2.46H.06v.439h11.665v-.439h-1.272c-2.008-.065-2.682-.362-2.682-2.46V45.818h3.003c3.298 0 6.086.633 8.239 2.4 6.016 4.946 6.355 18.867 16.424 18.867h9.32v-.439h-1.076c-2.405 0-2.879-.538-2.879-2.763V45.818h21.482l-.007 18.376c-.006 2.021-.47 2.452-2.9 2.452H58.33v.439h11.665v-.439h-1.03c-2.323 0-2.92-.424-2.92-2.452V25.485c0-1.879.52-2.31 2.92-2.311h1.03v-.44H58.33v.44h1.049c2.428 0 2.893.41 2.894 2.45l.01 19.752.005.001Z"></path></g><defs><clipPath id="a"><path fill="#fff" d="M0 0h70v67.083H0z"></path></clipPath></defs></svg>