<svg version="1.2" xmlns="http://www.w3.org/2000/svg" viewBox="0 0 1512 962" width="1512" height="962">
	<style>
		.s0 { fill: #000000 } 
	</style>
	<path id="Layer" fill-rule="evenodd" class="s0" d="m1488.8 7.4c-48.4 0-62.2 10.9-64.1 50.7v844.6c1.9 39.4 15.7 50.5 64.1 50.5h22.1v7.2h-252.3v-7.2h22.1c53.9 0 63.3-14.1 64.3-56.2v-398.3h-469.6v392.1c0 47.9 8.2 63 63.5 63h32.2v7.2h-200.1c-136.9 0-191.7-117.2-244.6-230.5-33-71-64.1-137.5-113.3-177.8-43.8-35.6-105.6-53.9-183.1-53.9 0 0-40.8 0-66.3 0v391.6c0 46.4 8.5 61.9 58.8 62.9 1.4 0 33.8 0 38.4 0v7.1h-260v-7.2h22.4c45.4-0.8 58.2-12 59.8-52.4v-830.5c0-47.7-9.1-62.6-64.4-62.6h-17.8v-7.4h337.4c76.4 0.3 325.6 18.6 325.6 245.6 0 90.9-37.7 159.4-111.2 202.7-73.5 43.3-164.1 50.2-211.7 50.2h-31.8c223.7 31.6 279 151.6 369.5 346.9l6.7 14.7c25.3 55.8 42.2 92.7 104.1 92.7h5.9v-882.8c-0.1-52.5-15.3-62.2-60.6-62.2h-21.6v-7.5h253v7.2h-31.7c-50.9 0.9-59.4 16.4-59.4 62.9v421.1h470.1v-427.9c-1.1-48.1-17-56.2-64.2-56.2h-22.2v-7.3h252.3v7.3h-22.1m-904.3 239.8c0-152.3-102.7-239.6-281.7-239.6h-81.9c-48.8 1.3-57.2 16.5-57.2 61.7v422.2h176c32.8 0.7 65.4-5.4 95.9-17.7 30.4-12.3 58-30.7 81.2-54.1 44.1-46.4 68.4-108.3 67.6-172.5z"/>
</svg>