<svg viewBox="0 0 16 16">
<path d="M6.75039 13.8028C3.20331 13.8028 0.317545 10.9171 0.317545 7.36999C0.317545 3.82291 3.20331 0.937145 6.75039 0.937145C10.2975 0.937145 13.1832 3.82291 13.1832 7.36999C13.1832 10.9171 10.2975 13.8028 6.75039 13.8028ZM6.75039 1.50163C3.51435 1.50163 0.882385 4.13431 0.882385 7.36963C0.882385 10.6049 3.51471 13.2376 6.75039 13.2376C9.98607 13.2376 12.6184 10.6053 12.6184 7.36963C12.6184 4.13395 9.98607 1.50163 6.75039 1.50163V1.50163Z"></path>
<path d="M11.2644 11.4835L10.881 11.8668L14.3173 15.3031L14.7007 14.9198L11.2644 11.4835Z"></path>
</svg>
