<svg xmlns="http://www.w3.org/2000/svg" xmlns:xlink="http://www.w3.org/1999/xlink" version="1.1" x="0px" y="0px" viewBox="0 0 100 125" style="enable-background:new 0 0 100 100;" xml:space="preserve"><g><path d="M50,77.29c17.1,0,31.01-13.91,31.01-31.01c0-17.1-13.91-31.01-31.01-31.01S18.99,29.18,18.99,46.28   C18.99,63.38,32.9,77.29,50,77.29z M50,18.27c15.45,0,28.01,12.57,28.01,28.01c0,15.45-12.57,28.01-28.01,28.01   S21.99,61.72,21.99,46.28C21.99,30.83,34.55,18.27,50,18.27z"/><path d="M70.29,72.75c-0.62,0.55-0.68,1.49-0.14,2.12l8.23,9.36c0.3,0.34,0.71,0.51,1.13,0.51c0.35,0,0.7-0.12,0.99-0.37   c0.62-0.55,0.68-1.49,0.14-2.12l-8.23-9.36C71.86,72.26,70.92,72.2,70.29,72.75z"/></g></svg>